HIERARCHY
ROOT RootJoint
{
    OFFSET   0.000000   0.000000   0.000000
    CHANNELS 6 Xposition Yposition Zposition Xrotation Yrotation Zrotation
    JOINT pelvis_lowerback
    {
        OFFSET   0.000000   0.093605   0.000000
        CHANNELS 3 Xrotation Yrotation Zrotation
        JOINT lowerback_torso
        {
            OFFSET   0.000000   0.100000   0.000000
            CHANNELS 3 Xrotation Yrotation Zrotation
            JOINT torso_head
            {
                OFFSET   0.000000   0.282350   0.000000
                CHANNELS 3 Xrotation Yrotation Zrotation
                End Site
                {
                    OFFSET   0.000000   0.192650   0.000000
                }
            }
            JOINT rTorso_Clavicle
            {
                OFFSET  -0.001000   0.157500   0.000000
                CHANNELS 3 Xrotation Yrotation Zrotation
                JOINT rShoulder
                {
                    OFFSET  -0.117647   0.000000   0.000000
                    CHANNELS 3 Xrotation Yrotation Zrotation
                    JOINT rElbow
                    {
                        OFFSET  -0.245000   0.000000   0.000000
                        CHANNELS 3 Xrotation Yrotation Zrotation
                        JOINT rWrist
                        {
                            OFFSET  -0.240000   0.000000   0.000000
                            CHANNELS 3 Xrotation Yrotation Zrotation
                            End Site
                            {
                                OFFSET  -0.116353  -0.002500   0.000000
                            }
                        }
                    }
                }
            }
            JOINT lTorso_Clavicle
            {
                OFFSET   0.001000   0.157500   0.000000
                CHANNELS 3 Xrotation Yrotation Zrotation
                JOINT lShoulder
                {
                    OFFSET   0.117647   0.000000   0.000000
                    CHANNELS 3 Xrotation Yrotation Zrotation
                    JOINT lElbow
                    {
                        OFFSET   0.245000   0.000000   0.000000
                        CHANNELS 3 Xrotation Yrotation Zrotation
                        JOINT lWrist
                        {
                            OFFSET   0.240000   0.000000   0.000000
                            CHANNELS 3 Xrotation Yrotation Zrotation
                            End Site
                            {
                                OFFSET   0.116353  -0.002500   0.000000
                            }
                        }
                    }
                }
            }
        }
    }
    JOINT rHip
    {
        OFFSET  -0.100000  -0.051395   0.000000
        CHANNELS 3 Xrotation Yrotation Zrotation
        JOINT rKnee
        {
            OFFSET   0.000000  -0.410000   0.000000
            CHANNELS 3 Xrotation Yrotation Zrotation
            JOINT rAnkle
            {
                OFFSET   0.000000  -0.390000   0.000000
                CHANNELS 3 Xrotation Yrotation Zrotation
                JOINT rToeJoint
                {
                    OFFSET   0.000000  -0.050000   0.130000
                    CHANNELS 3 Xrotation Yrotation Zrotation
                    End Site
                    {
                        OFFSET  -0.010000   0.002000   0.060000
                    }
                }
            }
        }
    }
    JOINT lHip
    {
        OFFSET   0.100000  -0.051395   0.000000
        CHANNELS 3 Xrotation Yrotation Zrotation
        JOINT lKnee
        {
            OFFSET   0.000000  -0.410000   0.000000
            CHANNELS 3 Xrotation Yrotation Zrotation
            JOINT lAnkle
            {
                OFFSET   0.000000  -0.390000   0.000000
                CHANNELS 3 Xrotation Yrotation Zrotation
                JOINT lToeJoint
                {
                    OFFSET   0.000000  -0.050000   0.130000
                    CHANNELS 3 Xrotation Yrotation Zrotation
                    End Site
                    {
                        OFFSET   0.010000   0.002000   0.060000
                    }
                }
            }
        }
    }
}
MOTION
Frames: 15
Frame Time:   0.008333
 -2.376719   0.925631   3.975860   0.000000   0.000000   0.000000   0.000000   0.000000   0.000000   0.000000   0.000000   0.000000   0.000000   0.000000   0.000000   0.000000   0.000000   0.000000   0.000000   0.000000   0.000000   0.000000   0.000000   0.000000   0.000000   0.000000   0.000000   0.000000   0.000000   0.000000   0.000000   0.000000   0.000000   0.000000   0.000000   0.000000   0.000000   0.000000   0.000000   0.000000   0.000000   0.000000   0.000000   0.000000   0.000000   0.000000   0.000000   0.000000   0.000000   0.000000   0.000000   0.000000   0.000000   0.000000   0.000000   0.000000   0.000000   0.000000   0.000000   0.000000   0.000000   0.000000   0.000000
 -2.376398   0.926507   3.975344   0.341524  -0.116130   0.305606  -0.668904   0.258970  -0.275212   0.449855  -0.253148  -0.098729   0.047733   0.136583  -0.013120   0.333240  -0.369954   0.829572   0.929348   0.377205   1.831592   0.034340   1.503834  -0.018512   0.653755  -0.821702  -3.032209   0.381018   0.070205  -0.971462   1.316973   0.071426  -1.635214   0.018417  -0.784964   0.012597   0.590455   0.378865   3.091090  -1.013666   0.275450  -0.525905   1.804177   0.003553   0.002347  -1.287353  -0.178308   0.122024  -0.234561  -0.000203   0.000047  -0.652378   0.110474  -0.215599   0.731870  -0.000567  -0.000053  -0.655029   0.485688  -0.188675   0.502795   0.000452   0.002086
 -2.376084   0.927920   3.974793   0.597794  -0.166966   0.656829  -1.269686   0.476230  -0.572002   0.934083  -0.532448  -0.249337   0.113617   0.265406  -0.031547   0.658660  -0.636790   2.461702   1.816591   0.868499   4.314661   0.080406   2.975411  -0.032456   1.340189  -1.199027  -5.288152   0.754440   0.030983  -2.789269   2.581664   0.026449  -3.913951   0.043258  -1.553811   0.022285   1.226292   0.561243   5.366420  -1.934027   0.545834  -1.219402   3.681084   0.008781   0.004737  -2.483129  -0.351494   0.229700  -0.478707  -0.000678  -0.000019  -1.243095   0.214597  -0.341194   1.486090  -0.001917   0.000281  -1.266893   0.945705  -0.359394   0.924283   0.000215   0.003514
 -2.375863   0.929376   3.974263   0.825311  -0.187692   1.006315  -1.824327   0.668743  -0.873860   1.395044  -0.810432  -0.428457   0.175846   0.385303  -0.045959   0.967177  -0.809078   4.567158   2.655333   1.448269   7.226341   0.125749   4.368652  -0.041746   2.005999  -1.384203  -6.599991   1.096189  -0.099508  -5.128744   3.754968  -0.128905  -6.516827   0.067906  -2.292424   0.028986   1.847494   0.592243   6.607159  -2.771849   0.810785  -1.993979   5.463883   0.014155   0.006240  -3.597210  -0.517010   0.325626  -0.703282  -0.001212  -0.000098  -1.799775   0.313722  -0.339467   2.194838  -0.003670   0.000711  -1.837430   1.378614  -0.513232   1.298872  -0.000397   0.004441
 -2.375756   0.930511   3.973791   1.041237  -0.200674   1.343215  -2.340969   0.846894  -1.181192   1.821136  -1.077711  -0.627568   0.231347   0.497252  -0.057690   1.258729  -0.911152   6.929603   3.443851   2.104627  10.414542   0.164677   5.680790  -0.047425   2.649272  -1.459543  -7.200065   1.400321  -0.290025  -7.752213   4.837027  -0.376536  -9.265335   0.089187  -2.998406   0.033340   2.454069   0.499498   7.077393  -3.541969   1.070751  -2.816236   7.133960   0.019005   0.006714  -4.637400  -0.674447   0.411467  -0.916588  -0.001746  -0.000146  -2.330103   0.406294  -0.219750   2.851537  -0.005506   0.001075  -2.370015   1.785816  -0.651665   1.632931  -0.001158   0.004942
 -2.375714   0.931044   3.973404   1.250396  -0.215148   1.661703  -2.824356   1.015597  -1.485609   2.212369  -1.329604  -0.826654   0.281205   0.601655  -0.073327   1.534573  -0.960632   9.456392   4.141057   2.790702  13.620884   0.194127   6.915021  -0.049932   3.271469  -1.449200  -7.237191   1.665078  -0.515992 -10.509174   5.829484  -0.696591 -12.048809   0.105700  -3.670032   0.035873   3.044359   0.312720   7.024278  -4.251454   1.325564  -3.668515   8.695028   0.023099   0.006346  -5.608917  -0.823756   0.488485  -1.119399  -0.002243  -0.000158  -2.834812   0.490812  -0.001320   3.459876  -0.007203   0.001335  -2.867306   2.168500  -0.776233   1.931656  -0.001911   0.005120
 -2.375706   0.930772   3.973118   1.453728  -0.235993   1.961587  -3.278254   1.176263  -1.781608   2.571163  -1.565973  -1.021942   0.326969   0.699154  -0.090397   1.794778  -0.978028  12.030424   4.753277   3.486526  16.763739   0.213725   8.072224  -0.050105   3.869586  -1.385468  -6.918718   1.892437  -0.756693 -13.293927   6.735757  -1.068097 -14.792962   0.117114  -4.305704   0.036997   3.614552   0.061555   6.637884  -4.904876   1.575306  -4.539541  10.154388   0.026340   0.005382  -6.516213  -0.965080   0.557632  -1.310922  -0.002676  -0.000138  -3.313011   0.566666   0.295222   4.024668  -0.008647   0.001489  -3.331566   2.527765  -0.888465   2.200269  -0.002575   0.005070
 -2.375589   0.929016   3.972556   1.601588  -0.369723   2.216138  -3.666608   1.367594  -1.977830   3.020804  -1.723254  -1.216403   0.266668   0.601833  -0.174070   2.172733  -0.638196  14.046154   5.207941   4.045395  19.513861   0.229062   9.423473  -0.054230   4.330967  -1.450315  -5.499855   2.111296  -1.047734 -15.396353   7.491938  -1.667491 -17.396372   0.125400  -5.028630   0.039287   4.054948  -0.129880   5.104077  -5.544882   1.754120  -5.313266  11.606818   0.027955   0.002044  -7.272927  -1.211869   0.773868  -1.357726  -0.002280   0.000010  -3.680421   0.978538   0.578134   4.329537  -0.008251   0.002026  -3.345647   2.891404  -1.039819   2.402713  -0.002657   0.005205
 -2.375424   0.925996   3.971854   1.740469  -0.506968   2.448054  -4.001512   1.548790  -2.142562   3.446845  -1.859724  -1.392188   0.211889   0.503221  -0.254329   2.470718  -0.215678  15.710392   5.586837   4.648557  21.925165   0.231547  10.715006  -0.056503   4.796967  -1.375492  -4.240843   2.273523  -1.401150 -17.158275   8.157855  -2.310741 -19.680928   0.127023  -5.730715   0.040511   4.488506  -0.452922   3.692462  -6.150307   1.919226  -6.015302  12.962697   0.028090  -0.000800  -7.976254  -1.446911   0.972509  -1.385946  -0.001901   0.000085  -4.054143   1.375867   0.824910   4.581780  -0.007566   0.002268  -3.354974   3.233273  -1.180686   2.617899  -0.002653   0.005312
 -2.375234   0.921854   3.971132   1.876193  -0.639230   2.661895  -4.302845   1.723515  -2.287212   3.837391  -1.981164  -1.550991   0.164655   0.410775  -0.328036   2.704272   0.234759  17.116526   5.901468   5.259307  24.067385   0.225680  11.938084  -0.056933   5.256724  -1.211867  -3.254455   2.391161  -1.777181 -18.663791   8.746292  -2.960210 -21.703780   0.124000  -6.399399   0.040547   4.908150  -0.839215   2.548836  -6.712389   2.078513  -6.651588  14.222476   0.027192  -0.002931  -8.632132  -1.668300   1.155176  -1.409748  -0.001579   0.000131  -4.430023   1.746146   1.036204   4.801164  -0.006784   0.002328  -3.363514   3.552203  -1.312235   2.817082  -0.002522   0.005232
 -2.375032   0.916689   3.970460   2.009126  -0.763908   2.859379  -4.582531   1.892698  -2.415613   4.191522  -2.089197  -1.694670   0.122845   0.324520  -0.396196   2.889991   0.684442  18.324966   6.164265   5.855774  25.990379   0.214613  13.089402  -0.055862   5.702499  -1.004373  -2.488031   2.477398  -2.150114 -19.968017   9.269590  -3.594231 -23.511809   0.117974  -7.029716   0.039557   5.308581  -1.243278   1.628966  -7.227945   2.231136  -7.226271  15.395526   0.025633  -0.004423  -9.243867  -1.876447   1.323315  -1.430485  -0.001309   0.000158  -4.800222   2.090888   1.214788   4.995654  -0.005990   0.002282  -3.371257   3.849607  -1.435157   3.000659  -0.002316   0.005026
 -2.374799   0.914597   3.969932   2.010874  -0.782687   2.497235  -4.788450   1.993047  -2.083262   4.593724  -2.220391  -1.652397   0.090341   0.242528  -0.445208   3.036645   1.133582  19.548187   6.385033   6.422136  27.751771   0.202522  14.148032  -0.054000   6.127342  -0.868624  -1.958075   2.514478  -2.550839 -21.396227   9.720532  -4.244337 -25.248692   0.111869  -7.622837   0.037872   5.689224  -1.616810   0.898646  -8.058968   2.384176  -6.867264  17.041653   0.021197  -0.003260 -10.108590  -1.946906   1.872603  -1.299969  -0.001624   0.000119  -5.076238   2.395930   1.826351   5.176507  -0.005114   0.002388  -3.367786   4.129832  -1.547228   3.247844  -0.002001   0.005357
 -2.374170   0.913955   3.969838   1.992677  -0.673403   2.805273  -5.007169   2.094618  -2.372318   4.963701  -2.354790  -1.798181   0.068426   0.165469  -0.494657   3.188590   1.541367  20.754810   6.580573   6.964465  29.486309   0.189444  15.146076  -0.051573   6.533154  -0.699102  -1.349090   2.549532  -2.910844 -22.602815  10.130637  -4.849921 -26.810794   0.104533  -8.177337   0.035221   6.051594  -2.004275   0.188114  -8.532803   2.534224  -7.230731  18.155839   0.017932  -0.001782 -10.792358  -2.092323   2.068465  -1.299317  -0.001300   0.000095  -5.372045   2.739238   1.530501   5.688882  -0.003918   0.003889  -2.998670   4.417303  -1.772489   3.437745  -0.001202   0.005493
 -2.373734   0.913765   3.969563   2.071849  -0.661782   3.013422  -5.139694   2.239318  -2.605879   5.237579  -2.417655  -1.879667  -0.025049   0.044918  -0.561170   3.361107   1.980561  21.461267   6.642809   7.495771  30.803266   0.171413  16.145199  -0.049820   6.846991  -0.370316   0.027603   2.647808  -3.177531 -23.263676  10.248170  -5.370556 -28.117070   0.097419  -8.866760   0.032460   6.352193  -2.552163  -1.176303  -8.847627   2.642258  -7.477211  18.643950   0.014608  -0.001429 -11.102138  -2.139755   2.214525  -1.157866  -0.001152   0.000073  -5.512029   3.008922   1.324073   5.748510  -0.003116   0.003250  -2.820634   4.543936  -1.903221   3.601529  -0.000725   0.004944
 -2.373429   0.913735   3.968994   2.253208  -0.710427   3.183700  -5.231543   2.410552  -2.822226   5.459582  -2.436967  -1.945958  -0.114864  -0.069049  -0.621301   3.462366   2.422129  21.823294   6.669409   8.003794  31.826346   0.150813  17.091540  -0.048016   7.145664   0.009325   1.136887   2.728047  -3.423437 -23.585331  10.353692  -5.830799 -29.139971   0.087535  -9.510102   0.029792   6.624598  -3.118400  -2.286186  -9.216786   2.711802  -7.679659  18.935561   0.011778  -0.001357 -11.265247  -2.219072   2.317099  -1.024017  -0.000984  -0.000088  -5.672111   3.247513   1.157775   5.639710  -0.002517   0.002440  -2.728672   4.656717  -2.008526   3.732682  -0.000414   0.004264
